<?xml version="1.0" encoding="utf-8"?>
<!-- Generator: Adobe Illustrator 18.0.0, SVG Export Plug-In . SVG Version: 6.00 Build 0)  -->
<!DOCTYPE svg PUBLIC "-//W3C//DTD SVG 1.1//EN" "http://www.w3.org/Graphics/SVG/1.1/DTD/svg11.dtd">
<svg version="1.1" id="Layer_1" xmlns="http://www.w3.org/2000/svg" xmlns:xlink="http://www.w3.org/1999/xlink" x="0px" y="0px"
	 viewBox="0 0 30 30" enable-background="new 0 0 30 30" xml:space="preserve">
<circle fill="#00DA45" cx="15" cy="15" r="15"/>
<g id="gcDh8J.tif">
	<g>
		<path fill="#FFFFFF" d="M16.8,5.4c1,0,2,0,3,0c0,1.1,0,2.1,0,3.2c-0.2,0-0.3,0-0.5,0c-0.6,0-1.2,0-1.7,0c-0.7,0-1,0.4-1,1
			c0,0.7,0,1.4,0,2.1c0,0,0,0,0,0c1,0,2.1,0,3.2,0c-0.1,1.1-0.3,2.1-0.4,3.2c-0.9,0-1.9,0-2.8,0c0,3.2,0,6.4,0,9.6
			c-1.3,0-2.5,0-3.8,0c0-3.2,0-6.4,0-9.6c-0.9,0-1.7,0-2.6,0c0-1.1,0-2.1,0-3.2c0.8,0,1.7,0,2.6,0c0-0.6,0-1.3,0-1.9
			c0-0.4,0-0.9,0.1-1.3C13.2,7,14.4,5.9,16,5.5C16.3,5.5,16.5,5.5,16.8,5.4z"/>
	</g>
</g>
</svg>
