<?xml version="1.0" encoding="utf-8"?>
<!-- Generator: Adobe Illustrator 18.0.0, SVG Export Plug-In . SVG Version: 6.00 Build 0)  -->
<!DOCTYPE svg PUBLIC "-//W3C//DTD SVG 1.1//EN" "http://www.w3.org/Graphics/SVG/1.1/DTD/svg11.dtd">
<svg version="1.1" id="Layer_1" xmlns="http://www.w3.org/2000/svg" xmlns:xlink="http://www.w3.org/1999/xlink" x="0px" y="0px"
	 viewBox="0 0 30 30" enable-background="new 0 0 30 30" xml:space="preserve">
<circle fill="#00DA45" cx="15" cy="15" r="15"/>
<path fill="#FFFFFF" d="M15,9.3c2.1,0,4.1,0,6.2,0c0.4,0,0.9,0.3,1.1,0.7c0.1,0.3,0.1,0.6-0.2,0.8c-2.1,1.6-4.1,3.2-6.2,4.8
	c-1,0.8-1.1,0.8-2.1,0c-1.9-1.5-3.8-3-5.7-4.4c-0.4-0.3-0.5-0.8-0.3-1.2c0.2-0.4,0.6-0.7,1.1-0.7C10.9,9.3,12.9,9.3,15,9.3z"/>
<path fill="#FFFFFF" d="M21.1,20.7c-4.1,0-8.2,0-12.3,0c1.5-1.3,2.9-2.6,4.3-3.8c0.6,0.3,1,0.9,1.8,0.8c0.7-0.1,1.2-0.6,1.7-1
	C18.1,18.1,19.6,19.4,21.1,20.7z"/>
<path fill="#FFFFFF" d="M22.6,12.1c0,2.7,0,5.3,0,8c-1.6-1.4-3.2-2.8-4.8-4.2C19.5,14.6,21,13.3,22.6,12.1z"/>
<path fill="#FFFFFF" d="M11.9,15.9c-1.5,1.3-3,2.6-4.5,4c0-2.5,0-4.9,0-7.4C8.9,13.6,10.4,14.8,11.9,15.9z"/>
</svg>
