<?xml version="1.0" encoding="utf-8"?>
<!-- Generator: Adobe Illustrator 18.0.0, SVG Export Plug-In . SVG Version: 6.00 Build 0)  -->
<!DOCTYPE svg PUBLIC "-//W3C//DTD SVG 1.1//EN" "http://www.w3.org/Graphics/SVG/1.1/DTD/svg11.dtd">
<svg version="1.1" id="Layer_1" xmlns="http://www.w3.org/2000/svg" xmlns:xlink="http://www.w3.org/1999/xlink" x="0px" y="0px"
	 viewBox="0 0 30 30" enable-background="new 0 0 30 30" xml:space="preserve">
<circle fill="#00DA45" cx="15" cy="15" r="15"/>
<g id="_x30_3O3AZ.tif">
	<g>
		<path fill="#FFFFFF" d="M6.9,11.9C6.9,11.8,6.9,11.8,6.9,11.9c0.7-0.7,1.5-1.4,2.2-2c0.6-0.5,1.2-1,1.9-1.4c1-0.6,2-0.2,2.5,0.8
			c0.2,0.4,0.3,0.8,0.4,1.2c0.2,1.2,0.4,2.4,0.6,3.5c0.2,0.9,0.5,1.7,0.8,2.6c0.2,0.6,0.6,0.6,1,0.2c1-1,1.7-2.2,2.1-3.5
			c0.3-1.2-0.4-1.8-1.5-1.6c-0.2,0-0.4,0.1-0.7,0.2c0.1-0.4,0.2-0.6,0.4-0.9c0.7-1.4,1.7-2.5,3.3-2.8c1.3-0.3,2.5,0.3,3,1.4
			c0.1,0.3,0.2,0.6,0.3,0.9c0,0.3,0,0.7,0,1c-0.1,0.5-0.2,1-0.4,1.4c-1.2,3.1-3.2,5.7-5.7,7.9c-0.6,0.5-1.3,1-2,1.2
			c-1,0.3-1.8,0.1-2.3-0.8c-0.3-0.5-0.6-1.1-0.8-1.7c-0.5-1.6-0.9-3.1-1.4-4.7c-0.2-0.7-0.4-1.4-0.7-2c-0.3-0.7-0.7-0.8-1.3-0.4
			c-0.2,0.2-0.5,0.3-0.7,0.5C7.4,12.4,7.2,12.1,6.9,11.9z"/>
	</g>
</g>
</svg>
