<?xml version="1.0" encoding="utf-8"?>
<!-- Generator: Adobe Illustrator 18.0.0, SVG Export Plug-In . SVG Version: 6.00 Build 0)  -->
<!DOCTYPE svg PUBLIC "-//W3C//DTD SVG 1.1//EN" "http://www.w3.org/Graphics/SVG/1.1/DTD/svg11.dtd">
<svg version="1.1" id="Layer_1" xmlns="http://www.w3.org/2000/svg" xmlns:xlink="http://www.w3.org/1999/xlink" x="0px" y="0px"
	 viewBox="0 0 350.1 350.1" enable-background="new 0 0 350.1 350.1" xml:space="preserve">
<circle fill="#00DA45" cx="175.1" cy="175.1" r="175.1"/>
<path fill="#FFFFFF" d="M125.4,68.6c0,0,13.5-3.4,30.7-3.4c65.9,0,71.2,42.3,71.2,58.4c0,47.9-38.3,65-74.4,65
	c-7.8,0-13.1-0.7-20.9-1.9c0,60.8-9,83.8-9,83.8h-22.2c0,0,10.5-24,10.5-80.7c0-49.7-1.4-117-1.4-117L125.4,68.6z M132,168.3
	c5.6,1.6,12.9,2.2,21.4,2.2c32.1,0,51.7-16.1,51.7-45.2s-20.9-42-48.7-42c-11.2,0-19.5,1.1-24.4,2.1V168.3z"/>
<path fill="#FFFFFF" d="M174.2,199.3c-18.2,0-30.9,15.1-30.9,36.7c0,21,12.6,34.5,32.1,34.5c10.6,0,17.6-2.6,20.9-4.2l2.4-1.1
	l-3.4-12.9l-3.4,1.5c-3.5,1.4-7.8,3-15.1,3c-6.2,0-16.3,1.9-17.7-17.1H201l0.2-3.1c0.1-1.5,0.2-3.4,0.2-5.7
	C201.4,215.2,193,199.3,174.2,199.3z M159.8,229c1.2-5.7,2.9-16.3,13.6-16.3c9.5,0,13.2,10.6,13.7,16.3L159.8,229z"/>
<path fill="#FFFFFF" d="M242.3,198c-17.8,0-30.3,15.4-30.3,37.4c0,21.4,12.4,35.2,31.5,35.2c10.4,0,17.3-2.7,20.5-4.3l2.3-1.2
	l-3.4-11.3c0,0-10.9,4.4-18.1,4.4c-6.1,0-16,0.2-17.3-15.7l41.2-4.9c0.1-1.6,0.2-4.4,0.2-6.7C269,215,260.8,198,242.3,198z
	 M228.2,230.4c1.2-5.8,2.8-18.7,13.3-18.7c9.3,0,13,9,13.5,14.8L228.2,230.4z"/>
<circle fill="#FFFFFF" cx="188.2" cy="147" r="13.2"/>
</svg>
