<?xml version="1.0" encoding="utf-8"?>
<!-- Generator: Adobe Illustrator 18.0.0, SVG Export Plug-In . SVG Version: 6.00 Build 0)  -->
<!DOCTYPE svg PUBLIC "-//W3C//DTD SVG 1.1//EN" "http://www.w3.org/Graphics/SVG/1.1/DTD/svg11.dtd">
<svg version="1.1" id="Layer_1" xmlns="http://www.w3.org/2000/svg" xmlns:xlink="http://www.w3.org/1999/xlink" x="0px" y="0px"
	 viewBox="0 0 271.1 271.6" enable-background="new 0 0 271.1 271.6" xml:space="preserve">
<g>
	<circle fill="#00DA45" cx="135.4" cy="135.8" r="135.7"/>
	<g>
		<path fill="#FFFFFF" d="M93.5,70.5c8.4-1.4,19.4-2.6,33.3-2.6c17.2,0,29.7,4,37.7,11.2c7.4,6.4,11.8,16.2,11.8,28.1
			c0,12.2-3.6,21.8-10.4,28.7c-9.2,9.8-24.1,14.8-41.1,14.8c-5.2,0-10-0.2-14-1.2v53.9H93.5V70.5z M110.9,135.4
			c3.8,1,8.6,1.4,14.4,1.4c21,0,33.7-10.2,33.7-28.7c0-17.8-12.6-26.3-31.7-26.3c-7.6,0-13.4,0.6-16.4,1.4V135.4z"/>
	</g>
	<path fill="#FFFFFF" d="M131.9,182c0.2,10.8,7.1,15.2,15.1,15.2c5.7,0,9.2-1,12.2-2.3l1.4,5.7c-2.8,1.3-7.6,2.7-14.6,2.7
		c-13.5,0-21.6-8.9-21.6-22.1s7.8-23.7,20.6-23.7c14.3,0,18.1,12.6,18.1,20.7c0,1.6-0.2,2.9-0.3,3.7H131.9z M155.3,176.3
		c0.1-5.1-2.1-13-11.1-13c-8.1,0-11.6,7.4-12.3,13H155.3z"/>
	<path fill="#FFFFFF" d="M179.3,182c0.2,10.8,7.1,15.2,15.1,15.2c5.7,0,9.2-1,12.2-2.3l1.4,5.7c-2.8,1.3-7.6,2.7-14.6,2.7
		c-13.5,0-21.6-8.9-21.6-22.1s7.8-23.7,20.6-23.7c14.3,0,18.1,12.6,18.1,20.7c0,1.6-0.2,2.9-0.3,3.7H179.3z M202.7,176.3
		c0.1-5.1-2.1-13-11.1-13c-8.1,0-11.6,7.4-12.3,13H202.7z"/>
</g>
</svg>
